<svg width="81" height="24" viewBox="0 0 81 24" fill="none" xmlns="http://www.w3.org/2000/svg">
<path d="M14.4069 5.23641L16.502 3.16471L16.0541 2.72179C12.384 -0.907263 6.41649 -0.907263 2.74639 2.72179C-0.764769 6.19368 -0.909261 11.7658 2.31291 15.4235L0.203328 17.4809L0.651253 17.9238C4.32135 21.5529 10.2889 21.5529 13.959 17.9238C17.4846 14.4519 17.6291 8.87975 14.4069 5.23641ZM3.64224 3.62191C6.64768 0.635799 11.4737 0.492923 14.6525 3.17899L13.4533 4.36487C10.9102 2.30745 7.16785 2.45033 4.79818 4.79349C2.42851 7.13666 2.28401 10.8514 4.3647 13.3518L3.19431 14.5091C0.477863 11.3515 0.622355 6.59373 3.64224 3.62191ZM13.0487 17.0237C10.0288 20.0098 5.2172 20.1527 2.02393 17.4523L3.22321 16.2664C5.76627 18.3239 9.50862 18.181 11.8783 15.8378C14.248 13.4946 14.3925 9.77987 12.3118 7.27954L13.4822 6.12224C16.2131 9.29409 16.0686 14.0519 13.0487 17.0237Z" fill="#00D1C1"/>
<path d="M41.125 6.8658H43.9437V8.21649C43.9437 8.64529 43.9437 9.00976 43.9437 9.00976C45.3747 6.1583 50.1447 5.53655 51.2071 8.98832H51.2505C52.2262 7.0802 54.6329 6.1583 56.671 6.78004C58.5573 7.35891 59.0994 9.24559 59.0994 11.0036V18.4646H56.1723V11.5611C56.1723 10.3605 55.8471 9.1384 54.3727 9.24559C52.9417 9.33135 52.031 10.5963 51.7275 11.8827C51.6191 12.3329 51.5974 12.8474 51.5974 13.3834V18.486H48.6487V11.5611C48.6487 10.2747 48.2801 9.07408 46.719 9.26703C45.3313 9.43855 44.4857 10.6606 44.1822 11.9041C44.0737 12.3329 44.0521 12.8689 44.0521 13.3834V18.486H41.125V6.8658Z" fill="#00D1C1"/>
<path d="M80.1297 16.0217C79.3708 16.0217 78.9371 15.7001 78.9371 14.4351V4.89452V2.32178L76.0317 5.19468V14.8639C76.0317 18.187 78.0265 18.5944 79.6527 18.5944C80.1297 18.5944 80.5633 18.5301 80.5633 18.5301V16.0002C80.5633 16.0002 80.3465 16.0217 80.1297 16.0217Z" fill="#00D1C1"/>
<path d="M72.5833 8.90641C71.5642 7.25557 69.6996 6.44087 67.7482 6.63382C66.5123 6.76246 65.1897 7.40564 64.5609 8.5205C64.5609 8.5205 64.5609 8.15603 64.5609 7.72724V6.8911H61.894V23.9999L64.8211 21.1055V18.1897C64.8211 17.5894 64.8211 17.1821 64.8211 17.1821C65.7968 18.5971 67.7482 19.0044 69.3527 18.6614C73.5806 17.7395 74.6214 12.1652 72.5833 8.90641ZM67.6615 16.3245C65.8619 16.3245 64.8645 14.6951 64.7561 13.0871C64.6693 11.7364 65.0379 10.1499 66.3172 9.4424C67.3796 8.86353 68.7672 9.01361 69.6128 9.87119C71.4775 11.7364 70.8054 16.3245 67.6615 16.3245Z" fill="#00D1C1"/>
<path d="M38.3021 6.86914H35.375V18.4894H38.3021V6.86914Z" fill="#00D1C1"/>
<path d="M32.7541 13.0434C32.2987 11.0281 30.369 10.0418 28.5911 9.31289C27.4203 8.81978 25.1003 8.21947 25.1654 6.61151C25.2304 5.00354 27.1168 4.59619 28.4177 4.81059C29.1549 4.93922 29.8704 5.21794 30.4991 5.62529L32.4505 3.69573C30.6943 2.02344 27.6371 1.61609 25.4256 2.40936C23.0405 3.26694 21.3927 5.904 22.4985 8.34811C23.3007 10.149 25.3822 10.8994 27.0734 11.6284C28.3743 12.1858 30.6726 13.172 29.6319 14.9944C28.8947 16.3022 27.0083 16.1521 25.7942 15.7233C25.122 15.4875 24.4499 15.123 23.8645 14.6942L21.9131 16.6238C23.626 18.3389 26.4229 19.0464 28.7646 18.6177C31.4315 18.146 33.3612 15.7448 32.7541 13.0434Z" fill="#00D1C1"/>
</svg>
