<svg width="12" height="12" viewBox="0 0 12 12" fill="none" xmlns="http://www.w3.org/2000/svg">
<circle cx="6" cy="6" r="5.625" fill="white" stroke="#666666" stroke-width="0.75"/>
<path d="M6.17471 3.98766C6.01509 3.98766 5.88789 3.95024 5.79312 3.87542C5.69834 3.79561 5.65095 3.69086 5.65095 3.56117C5.65095 3.41152 5.71331 3.28183 5.83801 3.17209C5.96271 3.05736 6.12234 3 6.31687 3C6.48148 3 6.60868 3.03991 6.69847 3.11972C6.79324 3.19454 6.84063 3.2943 6.84063 3.41901C6.84063 3.57863 6.77828 3.71331 6.65357 3.82305C6.52887 3.93279 6.36925 3.98766 6.17471 3.98766ZM5.50879 9.30005C5.33919 9.30005 5.212 9.25765 5.1272 9.17285C5.0424 9.08805 5 8.95337 5 8.76881C5 8.56429 5.04739 8.20016 5.14216 7.6764C5.24193 7.15264 5.40903 6.36451 5.64347 5.31201L5.31425 4.9379C5.43397 4.84312 5.57114 4.7683 5.72578 4.71343C5.8854 4.65357 6.03005 4.62365 6.15975 4.62365C6.30939 4.62365 6.41414 4.65607 6.474 4.72092C6.53885 4.78077 6.57127 4.88552 6.57127 5.03517C6.57127 5.07507 6.52388 5.28957 6.42911 5.67864C6.27447 6.31214 6.14478 6.88578 6.04003 7.39956C5.94027 7.91334 5.89039 8.34731 5.89039 8.70147C5.89039 8.89102 5.93528 9.0232 6.02507 9.09802C5.86046 9.23271 5.68837 9.30005 5.50879 9.30005Z" fill="#666666"/>
</svg>
